<?xml version="1.0" encoding="UTF-8"?>
<svg id="Layer_1" data-name="Layer 1" xmlns="http://www.w3.org/2000/svg" viewBox="0 0 48 48">
  <defs>
    <style>
      .cls-1 {
        fill: #fff;
      }
    </style>
  </defs>
  <rect x="0" y="0" width="48" height="48" rx="5.19" ry="5.19"/>
  <path class="cls-1" d="M43.79,29.24c0,.39-.01.75-.04,1.08s-.08.67-.16,1.03c-.09.35-.21.71-.37,1.08-.16.37-.38.78-.64,1.25-.47.78-.91,1.48-1.34,2.09s-.81,1.14-1.15,1.58c-.27-.03-.68-.12-1.23-.3-.55-.17-1.16-.36-1.82-.57-.66-.21-1.32-.43-1.97-.66-.64-.23-1.18-.44-1.59-.61-1.27-.56-2.46-1.11-3.56-1.65s-2.17-1.14-3.19-1.8c-1.64,1.1-3.49,2.17-5.54,3.19-2.06,1.03-4.22,2.01-6.5,2.94l-10.21-2.68v-.59c1.71-.27,3.4-.62,5.05-1.06s3.24-.93,4.75-1.47,2.96-1.11,4.31-1.71c1.36-.6,2.63-1.19,3.8-1.78-1.03-.61-1.79-1.28-2.29-2.02s-.75-1.3-.75-1.69c0-.73.22-1.66.66-2.77.44-1.11,1-2.23,1.67-3.36.67-1.13,1.41-2.16,2.22-3.1.81-.94,1.58-1.61,2.31-2-.71-.59-1.24-1.03-1.6-1.34-.36-.31-.53-.58-.53-.83,0-.32.28-1.03.85-2.13.56-1.1,1.33-2.61,2.31-4.52h.37c1.89,1.57,3.66,3.24,5.33,5.01s3.28,3.68,4.85,5.71c1.17,1.52,2.14,2.94,2.92,4.28.77,1.33,1.39,2.57,1.85,3.71.47,1.14.79,2.18.97,3.14.19.96.28,1.8.28,2.53ZM28.52,17.57c-.35,0-.79.1-1.32.31-.54.21-1.09.47-1.65.79-.56.32-1.1.68-1.6,1.08-.5.4-.89.8-1.16,1.19.12.39.34.8.66,1.21.32.42.69.83,1.12,1.25.43.42.9.81,1.41,1.19s1.05.73,1.61,1.05c.86-.44,1.71-.95,2.55-1.52.84-.57,1.59-1.14,2.26-1.71-.15-.49-.36-1.02-.66-1.6-.29-.58-.62-1.1-.99-1.58-.36-.48-.74-.87-1.14-1.19s-.76-.48-1.1-.48ZM35.39,21.42c-.05.78-.19,1.51-.4,2.17-.22.66-.49,1.25-.81,1.78-.32.53-.67,1-1.05,1.41-.38.42-.75.77-1.12,1.06,1.25.71,2.64,1.35,4.18,1.91,1.55.56,3.04,1.05,4.48,1.47-.15-1.25-.64-2.7-1.47-4.35-.83-1.65-2.1-3.47-3.81-5.45Z"/>
</svg>